<svg xmlns="http://www.w3.org/2000/svg" xmlns:xlink="http://www.w3.org/1999/xlink" width="1920px" height="818px" viewBox="0 0 1920 818" version="1.1">
    <defs>
        <rect id="path-1" x="0" y="0" width="1920" height="818"/>
    </defs>
    <g id="page" stroke="none" stroke-width="1" fill="none" fill-rule="evenodd">
        <g id="bg">
            <mask id="mask-2" fill="white">
                <use xlink:href="#path-1"/>
            </mask>
            <use fill="#F4F4F4" xlink:href="#path-1"/>
            <g id="pattern" opacity="0.04" mask="url(#mask-2)">
                <g transform="translate(-412, -128)" fill="#999999">
                    <path d="M489.613453,0 C487.63378,0 485.654107,0.37571725 483.784358,1.12767431 L451.367346,14.0750266 C449.66667,14.7574838 448.553823,16.4056232 448.558011,18.2356118 L448.558011,52.2638894 L418.3892,52.2638894 L418.3892,34.1280857 C418.332667,31.5821963 416.247782,29.556772 413.709592,29.556772 C413.674521,29.556772 413.639974,29.5572946 413.604379,29.5578172 C413.073605,29.5698359 412.549112,29.6712117 412.052362,29.858809 L379.089396,42.931052 C377.163638,43.7044338 375.958665,45.6316177 376.108371,47.6988464 L386.877749,198.319137 C387.090792,201.331145 388.951642,203.979978 391.715961,205.205893 L483.23788,245.809484 C485.266233,246.715595 487.439581,247.16865 489.613453,247.16865 C491.787324,247.16865 493.960672,246.715595 495.989025,245.809484 L587.510944,205.205893 C590.275263,203.979978 592.136113,201.331145 592.349156,198.319137 L603.118534,47.6988464 C603.26824,45.6316177 602.063267,43.7044338 600.137509,42.931052 L567.174543,29.7809483 C566.629636,29.575584 566.070595,29.4778662 565.520977,29.4778662 C563.629243,29.4778662 561.847956,30.6306232 561.139734,32.5018936 C560.943442,33.0218361 560.840846,33.5720869 560.837706,34.1280857 L560.837706,52.2638894 L530.684598,52.2638894 L530.684598,18.2356118 C530.688785,16.4056232 529.575939,14.7574838 527.874739,14.0750266 L495.442547,1.12767431 C493.572798,0.37571725 491.593125,0 489.613453,0 M489.613453,7.25777036 C490.68547,7.25777036 491.732885,7.46052181 492.743136,7.86654727 L523.413932,20.1110627 L523.413932,52.2638894 L523.413932,59.5216598 L530.684598,59.5216598 L560.837706,59.5216598 L568.108371,59.5216598 L568.108371,52.2638894 L568.108371,37.968867 L595.737422,48.9916482 L585.097335,197.808078 C585.073256,198.143036 584.867542,198.436189 584.558709,198.573099 L493.018992,239.184528 C491.940694,239.666324 490.79487,239.91088 489.613453,239.91088 C488.432035,239.91088 487.286212,239.666324 486.190116,239.177212 L394.667149,198.572576 C394.359363,198.436189 394.153649,198.143036 394.129047,197.80233 L383.490007,48.9953061 L411.118534,38.0383669 L411.118534,52.2638894 L411.118534,59.5216598 L418.3892,59.5216598 L448.558011,59.5216598 L455.828153,59.5216598 L455.828153,52.2638894 L455.828153,20.1105402 L486.499472,7.8602766 C487.49402,7.46052181 488.541435,7.25777036 489.613453,7.25777036"/>
                    <path d="M517.402417,138.519582 C511.877444,133.949314 503.750944,130.074566 493.023442,126.896385 C488.499821,125.314087 484.157313,123.256265 480.069723,120.757405 C477.864445,119.337623 476.553736,116.879 476.60451,114.259953 C476.576768,111.513925 477.820999,108.909509 479.976026,107.201799 C482.605296,105.170626 485.879974,104.152689 489.199668,104.33506 C493.991293,104.33506 497.581086,105.332096 499.953344,107.295336 C502.325601,109.258576 503.527433,112.43728 503.527433,116.800094 L524.394609,116.800094 L524.519189,116.410268 C524.737989,107.435904 521.616157,100.481738 515.154739,95.5477708 C510.51282,92.1109247 505.102482,89.8545309 499.391686,88.9724576 L499.391686,74.2797707 L479.819516,74.2797707 L479.819516,89.0346417 C474.437967,89.9585194 469.335939,92.0894999 464.89921,95.2671586 C458.694805,99.5050819 455.036441,106.569507 455.159974,114.073401 C455.159974,122.008925 457.948371,128.080495 463.525688,132.287065 C469.102482,136.494158 477.639887,140.46192 489.137378,144.190875 C494.818338,146.185468 498.746277,148.060397 500.921195,149.81566 C503.135372,151.696859 504.337204,154.506116 504.167607,157.403685 C504.242984,160.131946 503.007651,162.731659 500.843202,164.399655 C498.647346,166.175821 495.297291,167.063642 490.791991,167.063642 C485.329309,167.063642 481.255852,165.926562 478.602504,163.667033 C475.949156,161.408026 474.622744,157.575083 474.622744,152.199557 L453.692755,152.199557 L453.568174,152.588861 C453.349374,163.194643 456.882111,170.96922 464.165339,175.913638 C468.878971,179.080323 474.18933,181.253631 479.772929,182.301877 L479.772929,197.617972 L499.360279,197.617972 L499.360279,182.706857 C505.358971,182.025967 511.098556,179.886104 516.076004,176.47434 C522.309723,172.145492 525.908414,164.947816 525.627324,157.372332 C525.658731,149.384552 522.91692,143.100302 517.402417,138.519582"/>
                    <path d="M740.867542,0 C738.887869,0 736.908196,0.37571725 735.038447,1.12767431 L702.621435,14.0750266 C700.920759,14.7574838 699.807913,16.4056232 699.8121,18.2356118 L699.8121,52.2638894 L669.643289,52.2638894 L669.643289,34.1280857 C669.586757,31.5821963 667.501871,29.556772 664.963682,29.556772 C664.928611,29.556772 664.894063,29.5572946 664.858469,29.5578172 C664.327695,29.5698359 663.803202,29.6712117 663.306451,29.858809 L630.343485,42.931052 C628.417727,43.7044338 627.212755,45.6316177 627.36246,47.6988464 L638.131839,198.319137 C638.344881,201.331145 640.205732,203.979978 642.97005,205.205893 L734.491969,245.809484 C736.520323,246.715595 738.693671,247.16865 740.867542,247.16865 C743.041413,247.16865 745.214761,246.715595 747.243115,245.809484 L838.765034,205.205893 C841.529352,203.979978 843.390203,201.331145 843.603245,198.319137 L854.372624,47.6988464 C854.522329,45.6316177 853.317357,43.7044338 851.391599,42.931052 L818.428632,29.7809483 C817.883725,29.575584 817.324685,29.4778662 816.775067,29.4778662 C814.883333,29.4778662 813.102046,30.6306232 812.393823,32.5018936 C812.197531,33.0218361 812.094936,33.5720869 812.091795,34.1280857 L812.091795,52.2638894 L781.938687,52.2638894 L781.938687,18.2356118 C781.942875,16.4056232 780.830028,14.7574838 779.128829,14.0750266 L746.696637,1.12767431 C744.826888,0.37571725 742.847215,0 740.867542,0"/>
                    <path d="M992.121631,0 C990.141959,0 988.162286,0.37571725 986.292537,1.12767431 L953.875525,14.0750266 C952.174848,14.7574838 951.062002,16.4056232 951.06619,18.2356118 L951.06619,52.2638894 L920.897378,52.2638894 L920.897378,34.1280857 C920.840846,31.5821963 918.755961,29.556772 916.217771,29.556772 C916.1827,29.556772 916.148153,29.5572946 916.112558,29.5578172 C915.581784,29.5698359 915.057291,29.6712117 914.560541,29.858809 L881.597575,42.931052 C879.671817,43.7044338 878.466844,45.6316177 878.61655,47.6988464 L889.385928,198.319137 C889.598971,201.331145 891.459821,203.979978 894.22414,205.205893 L985.746059,245.809484 C987.774412,246.715595 989.94776,247.16865 992.121631,247.16865 C994.295503,247.16865 996.468851,246.715595 998.497204,245.809484 L1090.01912,205.205893 C1092.78344,203.979978 1094.64429,201.331145 1094.85733,198.319137 L1105.62671,47.6988464 C1105.77642,45.6316177 1104.57145,43.7044338 1102.64516,42.931052 L1069.68272,29.7809483 C1069.13781,29.575584 1068.57877,29.4778662 1068.02916,29.4778662 C1066.13742,29.4778662 1064.35614,30.6306232 1063.64791,32.5018936 C1063.45162,33.0218361 1063.34903,33.5720869 1063.34588,34.1280857 L1063.34588,52.2638894 L1033.19278,52.2638894 L1033.19278,18.2356118 C1033.19696,16.4056232 1032.08412,14.7574838 1030.38292,14.0750266 L997.950726,1.12767431 C996.080977,0.37571725 994.101304,0 992.121631,0"/>
                    <path d="M1243.37572,0 C1241.39605,0 1239.41638,0.37571725 1237.5461,1.12767431 L1205.12961,14.0750266 C1203.42894,14.7574838 1202.31609,16.4056232 1202.32028,18.2356118 L1202.32028,52.2638894 L1172.15147,52.2638894 L1172.15147,34.1280857 C1172.09494,31.5821963 1170.01005,29.556772 1167.47238,29.556772 C1167.43731,29.556772 1167.40224,29.5572946 1167.36717,29.5578172 C1166.83587,29.5698359 1166.31138,29.6712117 1165.81463,29.858809 L1132.85166,42.931052 C1130.92591,43.7044338 1129.72093,45.6316177 1129.87064,47.6988464 L1140.64002,198.319137 C1140.85306,201.331145 1142.71391,203.979978 1145.47823,205.205893 L1237.00015,245.809484 C1239.0285,246.715595 1241.20185,247.16865 1243.37572,247.16865 C1245.54907,247.16865 1247.72294,246.715595 1249.75129,245.809484 L1341.27321,205.205893 C1344.03753,203.979978 1345.89838,201.331145 1346.11142,198.319137 L1356.8808,47.6988464 C1357.03051,45.6316177 1355.82554,43.7044338 1353.89925,42.931052 L1320.93681,29.7809483 C1320.3919,29.575584 1319.83286,29.4778662 1319.28325,29.4778662 C1317.39151,29.4778662 1315.61022,30.6306232 1314.902,32.5018936 C1314.70571,33.0218361 1314.60311,33.5720869 1314.59997,34.1280857 L1314.59997,52.2638894 L1284.44634,52.2638894 L1284.44634,18.2356118 C1284.45105,16.4056232 1283.33821,14.7574838 1281.63753,14.0750266 L1249.20534,1.12767431 C1247.33507,0.37571725 1245.35539,0 1243.37572,0"/>
                    <path d="M489.613453,471.344815 C487.63378,471.344815 485.654107,471.720532 483.784358,472.472489 L451.367346,485.420364 C449.66667,486.102299 448.553823,487.750438 448.558011,489.580427 L448.558011,523.608705 L418.3892,523.608705 L418.3892,505.472901 C418.332667,502.927011 416.247782,500.901587 413.710116,500.901587 C413.675045,500.901587 413.639974,500.90211 413.604379,500.902632 C413.073605,500.914651 412.549112,501.016027 412.052362,501.203624 L379.089396,514.275867 C377.163638,515.049249 375.958665,516.976433 376.108371,519.043662 L386.877749,669.663952 C387.090792,672.675961 388.951642,675.324793 391.715961,676.550708 L483.23788,717.154299 C485.266233,718.06041 487.439581,718.513465 489.613453,718.513465 C491.787324,718.513465 493.960672,718.06041 495.989025,717.154299 L587.510944,676.550708 C590.275263,675.324793 592.136113,672.675961 592.349156,669.663952 L603.118534,519.043662 C603.26824,516.976433 602.063267,515.049249 600.137509,514.275867 L567.174543,501.125763 C566.629636,500.920399 566.070595,500.822681 565.520977,500.822681 C563.629243,500.822681 561.847956,501.975438 561.139734,503.846709 C560.943442,504.366651 560.840846,504.916902 560.837706,505.472901 L560.837706,523.608705 L530.684598,523.608705 L530.684598,489.580427 C530.688785,487.750438 529.575939,486.102299 527.874739,485.420364 L495.442547,472.472489 C493.572798,471.720532 491.593125,471.344815 489.613453,471.344815"/>
                    <path d="M740.867542,471.344815 C738.887869,471.344815 736.908196,471.720532 735.038447,472.472489 L702.621435,485.420364 C700.920759,486.102299 699.807913,487.750438 699.8121,489.580427 L699.8121,523.608705 L669.643289,523.608705 L669.643289,505.472901 C669.586757,502.927011 667.501871,500.901587 664.964205,500.901587 C664.929134,500.901587 664.894063,500.90211 664.858469,500.902632 C664.327695,500.914651 663.803202,501.016027 663.306451,501.203624 L630.343485,514.275867 C628.417727,515.049249 627.212755,516.976433 627.36246,519.043662 L638.131839,669.663952 C638.344881,672.675961 640.205732,675.324793 642.97005,676.550708 L734.491969,717.154299 C736.520323,718.06041 738.693671,718.513465 740.867542,718.513465 C743.041413,718.513465 745.214761,718.06041 747.243115,717.154299 L838.765034,676.550708 C841.529352,675.324793 843.390203,672.675961 843.603245,669.663952 L854.372624,519.043662 C854.522329,516.976433 853.317357,515.049249 851.391599,514.275867 L818.428632,501.125763 C817.883725,500.920399 817.324685,500.822681 816.775067,500.822681 C814.883333,500.822681 813.102046,501.975438 812.393823,503.846709 C812.197531,504.366651 812.094936,504.916902 812.091795,505.472901 L812.091795,523.608705 L781.938687,523.608705 L781.938687,489.580427 C781.942875,487.750438 780.830028,486.102299 779.128829,485.420364 L746.696637,472.472489 C744.826888,471.720532 742.847215,471.344815 740.867542,471.344815"/>
                    <path d="M992.121631,471.344815 C990.141959,471.344815 988.162286,471.720532 986.292537,472.472489 L953.875525,485.420364 C952.174848,486.102299 951.062002,487.750438 951.06619,489.580427 L951.06619,523.608705 L920.897378,523.608705 L920.897378,505.472901 C920.840846,502.927011 918.755961,500.901587 916.218294,500.901587 C916.183224,500.901587 916.148153,500.90211 916.112558,500.902632 C915.581784,500.914651 915.057291,501.016027 914.560541,501.203624 L881.597575,514.275867 C879.671817,515.049249 878.466844,516.976433 878.61655,519.043662 L889.385928,669.663952 C889.598971,672.675961 891.459821,675.324793 894.22414,676.550708 L985.746059,717.154299 C987.774412,718.06041 989.94776,718.513465 992.121631,718.513465 C994.295503,718.513465 996.468851,718.06041 998.497204,717.154299 L1090.01912,676.550708 C1092.78344,675.324793 1094.64429,672.675961 1094.85733,669.663952 L1105.62671,519.043662 C1105.77642,516.976433 1104.57145,515.049249 1102.64516,514.275867 L1069.68272,501.125763 C1069.13781,500.920399 1068.57877,500.822681 1068.02916,500.822681 C1066.13742,500.822681 1064.35614,501.975438 1063.64791,503.846709 C1063.45162,504.366651 1063.34903,504.916902 1063.34588,505.472901 L1063.34588,523.608705 L1033.19278,523.608705 L1033.19278,489.580427 C1033.19696,487.750438 1032.08412,486.102299 1030.38292,485.420364 L997.950726,472.472489 C996.080977,471.720532 994.101304,471.344815 992.121631,471.344815"/>
                    <path d="M1243.37572,471.344815 C1241.39605,471.344815 1239.41638,471.720532 1237.5461,472.472489 L1205.12961,485.420364 C1203.42894,486.102299 1202.31609,487.750438 1202.32028,489.580427 L1202.32028,523.608705 L1172.15147,523.608705 L1172.15147,505.472901 C1172.09494,502.927011 1170.01005,500.901587 1167.47238,500.901587 C1167.43731,500.901587 1167.40224,500.90211 1167.36717,500.902632 C1166.83587,500.914651 1166.31138,501.016027 1165.81463,501.203624 L1132.85166,514.275867 C1130.92591,515.049249 1129.72093,516.976433 1129.87064,519.043662 L1140.64002,669.663952 C1140.85306,672.675961 1142.71391,675.324793 1145.47823,676.550708 L1237.00015,717.154299 C1239.0285,718.06041 1241.20185,718.513465 1243.37572,718.513465 C1245.54907,718.513465 1247.72294,718.06041 1249.75129,717.154299 L1341.27321,676.550708 C1344.03753,675.324793 1345.89838,672.675961 1346.11142,669.663952 L1356.8808,519.043662 C1357.03051,516.976433 1355.82554,515.049249 1353.89925,514.275867 L1320.93681,501.125763 C1320.3919,500.920399 1319.83286,500.822681 1319.28325,500.822681 C1317.39099,500.822681 1315.61022,501.975438 1314.902,503.846709 C1314.70571,504.366651 1314.60311,504.916902 1314.59997,505.472901 L1314.59997,523.608705 L1284.44634,523.608705 L1284.44634,489.580427 C1284.45105,487.750438 1283.33821,486.102299 1281.63753,485.420364 L1249.20534,472.472489 C1247.33507,471.720532 1245.35539,471.344815 1243.37572,471.344815"/>
                </g>
            </g>
        </g>
    </g>
</svg>
