<svg xmlns="http://www.w3.org/2000/svg" width="305px" height="46px" viewBox="0 0 305 46" version="1.1">
    <title>ta logo</title>
    <g id="ta-logo" stroke="none" stroke-width="1" fill="none" fill-rule="evenodd">
        <g transform="translate(0, 0)" fill-rule="nonzero">
            <path d="M41.6839141,7.99198963 L35.5556832,5.54143957 C35.2909552,5.431029 34.9883588,5.46151077 34.7510053,5.62249802 C34.5136519,5.78348528 34.3735668,6.05325656 34.3784849,6.33988569 L34.3784849,9.73752875 L28.7687312,9.73752875 L28.7687312,3.39243034 C28.7643403,3.05365086 28.5589106,2.74987916 28.2460042,2.61946654 L22.2112691,0.207139967 C21.5152304,-0.0690466558 20.739903,-0.0690466558 20.0438643,0.207139967 L14.0261285,2.61946654 C13.713222,2.74987916 13.5077924,3.05365086 13.5034015,3.39243034 L13.5034015,9.72903464 L7.88089832,9.72903464 L7.88089832,6.33139158 C7.88581642,6.04476246 7.74573134,5.77499118 7.50837791,5.61400392 C7.27102447,5.45301666 6.96842798,5.42253489 6.70370001,5.53294546 L0.571219265,7.99198963 C0.207968796,8.13205063 -0.0225012991,8.49128176 0.00174426857,8.87962387 L2.0076562,36.9101791 C2.04951215,37.4685599 2.39591269,37.958431 2.90861664,38.1842953 L19.9333691,45.7482981 C20.6866864,46.0839006 21.547198,46.0839006 22.3005152,45.7482981 L39.3252677,38.1842953 C39.8379717,37.958431 40.1843722,37.4685599 40.2262281,36.9101791 L42.2278903,8.87962387 C42.2587633,8.49706941 42.0389335,8.13836157 41.6839141,7.99198963 Z" fill="#FFC200"/>
            <path d="M26.5794078,26.0325926 C25.5357675,25.1807407 23.999137,24.4566667 21.9695161,23.8603704 C21.1129635,23.5658661 20.2909395,23.1817573 19.5175381,22.7146296 C19.0953039,22.4525374 18.8427682,21.9922305 18.8515688,21.5007407 C18.8456636,20.988871 19.0803186,20.5030554 19.4872668,20.1846296 C19.9795511,19.8066333 20.5936895,19.6160972 21.2170573,19.647963 C21.9407383,19.5934135 22.6610695,19.7892326 23.2538856,20.2016667 C23.7418653,20.6597069 23.9903711,21.3123952 23.9285039,21.9735185 L27.8810751,21.9735185 L27.8810751,21.9053704 C27.9987485,20.3940603 27.3334223,18.9264613 26.1123644,18.0038889 C25.2458795,17.372006 24.2395509,16.9516056 23.176045,16.7772222 L23.176045,14.0555556 L19.4699689,14.0555556 L19.4699689,16.8112963 C18.449121,16.9875129 17.482137,17.3894436 16.6417614,17.9868519 C15.4676234,18.7772503 14.7754315,20.0959463 14.7995345,21.4964815 C14.7208557,22.8205028 15.313713,24.096823 16.3822928,24.9038889 C17.4417895,25.6918519 19.0548191,26.432963 21.2343552,27.1314815 C22.0275873,27.3643955 22.7790129,27.7179159 23.4614604,28.1792593 C23.8840839,28.528536 24.1122001,29.0554171 24.075536,29.5975926 C24.0903154,30.1058341 23.8572142,30.5903392 23.448487,30.9009259 C22.8897435,31.2742871 22.2189513,31.4499669 21.5457175,31.3992593 C20.5121676,31.3992593 19.7424109,31.1905556 19.2407716,30.7646296 C18.7391324,30.3387037 18.4883128,29.6274074 18.4883128,28.635 L14.5270925,28.635 L14.5054701,28.7031481 C14.4622254,30.6908025 15.1296362,32.1403704 16.5077026,33.0518519 C17.4042864,33.6432917 18.4135879,34.0490388 19.4742933,34.2444444 L19.4742933,37.0555556 L23.176045,37.0555556 L23.176045,34.2827778 C24.3128775,34.151509 25.3997381,33.7478892 26.3415616,33.1072222 C27.5207993,32.2992871 28.2018629,30.9560973 28.1491927,29.5422222 C28.2122642,28.1948795 27.6313631,26.8961359 26.5794078,26.0325926 L26.5794078,26.0325926 Z" fill="#FFFFFF"/>
            <polygon fill="#FFFFFF" points="72.9354296 16.1788069 66.5907429 16.1788069 66.5907429 35.3518519 62.1869869 35.3518519 62.1869869 16.1788069 55.8811189 16.1788069 55.8811189 12.3518519 72.9440559 12.3518519"/>
            <path d="M83.1818182,17.462963 L83.0508897,21.1917789 L82.6285398,21.1917789 C80.3562972,21.1917789 78.155854,21.9914217 77.4969882,25.0873652 L77.4969882,35.7777778 L73.3706294,35.7777778 L73.3706294,17.7965038 L77.4843177,17.7965038 L77.4843177,21.0250084 C78.569757,18.0616261 80.7068476,17.462963 82.8101502,17.462963 L83.1818182,17.462963 Z" fill="#FFFFFF"/>
            <path d="M99.3916084,23.1212326 L99.3916084,35.4543281 L95.7108571,35.4543281 L95.2848442,33.1943807 C94.4328184,34.7024125 92.1664299,35.7777778 89.3206638,35.7777778 C85.2394604,35.7777778 83.1818182,33.9462963 83.1818182,30.4471585 C83.1818182,26.29272 85.8017974,24.8224941 90.449598,24.8224941 L95.2592834,24.8224941 L95.2592834,24.0369733 C95.2592834,21.9114467 94.5265413,20.8948904 91.212161,20.8948904 C89.9257159,20.9015807 88.6424951,21.0224874 87.3780451,21.2561459 L87.3780451,17.7570082 C88.796757,17.5632066 90.2272142,17.4649639 91.6594746,17.462963 C97.5001112,17.462963 99.3916084,19.5884896 99.3916084,23.1212326 Z M95.5524476,29.9342368 L95.5524476,27.6851852 L91.2229096,27.6851852 C88.59488,27.6851852 87.4475524,28.1610243 87.4475524,30.1863908 C87.4475524,31.6749132 88.31346,32.3703704 90.413286,32.3703704 C92.9547248,32.3703704 94.807767,31.4227591 95.5524476,29.9342368 L95.5524476,29.9342368 Z" fill="#FFFFFF"/>
            <path d="M119.867133,10.2222222 L119.867133,35.449596 L116.149942,35.449596 L115.745526,32.824142 C115.04425,34.5289823 113.366352,35.7777778 110.118112,35.7777778 C104.189538,35.7777778 102.804196,32.0953228 102.804196,26.4863983 C102.804196,21.4400712 104.211049,17.1950189 110.118112,17.1950189 C113.499723,17.1950189 114.975413,18.3202135 115.711107,20.080461 L115.711107,10.2222222 L119.867133,10.2222222 Z M115.601399,26.6376578 C115.601399,22.9381528 114.656723,20.4444444 111.092148,20.4444444 C107.460396,20.4444444 107.06993,23.3746598 107.06993,26.6376578 C107.06993,30.1383576 107.561161,32.7962963 111.092148,32.7962963 C114.623135,32.7962963 115.601399,30.5402898 115.601399,26.6376578 Z" fill="#FFFFFF"/>
            <path d="M139.321988,27.3890885 L127.48985,28.1410041 C127.588558,31.081456 129.060602,32.4592678 132.669897,32.4592678 C134.693795,32.4585825 136.696149,32.0525963 138.553779,31.2662844 L138.553779,34.601597 C137.480861,35.1896874 134.875816,35.7777778 131.936021,35.7777778 C126.451265,35.7777778 123.27972,33.7530666 123.27972,26.6203704 C123.27972,19.4876741 126.451265,17.462963 131.936021,17.462963 C138.184695,17.462963 139.489439,20.9284956 139.489439,25.0829341 C139.491795,25.8546419 139.435851,26.6254669 139.321988,27.3890885 L139.321988,27.3890885 Z M135.65035,24.5365682 C135.65035,22.3252964 135.183419,20.4444444 131.983442,20.4444444 C128.612114,20.4444444 127.678251,22.0287657 127.545455,25.1296296 L135.65035,24.5365682 Z" fill="#FFFFFF"/>
            <path d="M164.328881,29.2483333 L154.696853,29.2483333 L152.504266,35.3518519 L148.020979,35.3518519 L156.654825,12.3518519 L162.524476,12.3518519 L171.055944,35.3518519 L166.457483,35.3518519 L164.328881,29.2483333 Z M163.377622,25.5555556 L159.991131,16.1851852 L159.578251,16.1851852 L156.125874,25.5555556 L163.377622,25.5555556 Z" fill="#FFFFFF"/>
            <path d="M172.335664,35.2250861 L172.335664,31.7648773 C174.09587,32.2579129 175.914095,32.5238282 177.744391,32.555903 C180.060568,32.555903 181.169055,32.0948238 181.169055,30.440861 C181.169055,28.7868981 180.56521,28.3977303 177.472661,27.674386 C173.543355,26.7522276 172.568576,25.5974147 172.568576,22.5982851 C172.568576,19.4045716 174.617336,17.462963 179.555926,17.462963 C181.470978,17.462963 183.485233,17.7252282 184.391,18.0551747 L184.192594,21.2827289 C182.731637,20.8521425 181.21512,20.6299022 179.689635,20.6228358 C177.373458,20.6228358 176.497882,21.0839149 176.497882,22.5686745 C176.497882,23.951912 177.071535,24.1803365 179.892354,24.8740703 C183.920864,25.8300693 185.132867,26.9891123 185.132867,30.3097284 C185.132867,34.2944676 182.510454,35.774997 177.942797,35.774997 C176.05844,35.8030666 174.17704,35.6185512 172.335664,35.2250861 L172.335664,35.2250861 Z" fill="#FFFFFF"/>
            <path d="M187.692308,35.2173926 L187.692308,31.7586826 C189.445543,32.249739 191.256405,32.5155225 193.079469,32.5493657 C195.399959,32.5493657 196.508446,32.0884862 196.508446,30.4352398 C196.508446,28.7819933 195.900288,28.3929941 192.812051,27.669963 C188.882745,26.7482041 187.907967,25.5938913 187.907967,22.5960608 C187.907967,19.4037306 189.956727,17.462963 194.895317,17.462963 C196.810369,17.462963 198.824623,17.7251146 199.730391,18.0549182 L199.549237,21.2895309 C198.08828,20.859131 196.571763,20.636987 195.046278,20.6299236 C192.730101,20.6299236 191.854526,21.0908031 191.854526,22.5749195 C191.854526,23.9575579 192.428178,24.1858835 195.248998,24.8793168 C199.277507,25.8349017 200.48951,26.9934427 200.48951,30.3126204 C200.48951,34.2956337 197.867098,35.7755219 193.299441,35.7755219 C191.414751,35.8008025 189.533348,35.6135292 187.692308,35.2173926 Z" fill="#FFFFFF"/>
            <path d="M219.258741,17.462963 L219.258741,35.4484362 L215.501242,35.4484362 L215.135392,33.1473221 C214.093794,35.0806001 212.049336,35.7777778 209.540033,35.7777778 C204.981967,35.7777778 203.475524,33.5835928 203.475524,29.8196888 L203.475524,17.462963 L207.663436,17.462963 L207.663436,28.6349145 C207.663436,31.132778 208.235884,32.334661 210.814053,32.334661 C212.824078,32.334661 214.369258,31.7657983 215.07083,29.4689614 L215.07083,17.4929031 L219.258741,17.462963 Z" fill="#FFFFFF"/>
            <path d="M233.335664,17.462963 L233.20451,21.1917789 L232.781432,21.1917789 C230.5095,21.1917789 228.301031,21.9914217 227.645259,25.0873652 L227.645259,35.7777778 L223.524476,35.7777778 L223.524476,17.7965038 L227.645259,17.7965038 L227.645259,21.0250084 C228.732571,18.0616261 230.873348,17.462963 232.980278,17.462963 L233.335664,17.462963 Z" fill="#FFFFFF"/>
            <path d="M249.545455,23.1212326 L249.545455,35.4543281 L245.864703,35.4543281 L245.43869,33.1943807 C244.586665,34.7024125 242.320276,35.7777778 239.47451,35.7777778 C235.393307,35.7777778 233.335664,33.9462963 233.335664,30.4471585 C233.335664,26.29272 235.955644,24.8224941 240.599184,24.8224941 L245.41313,24.8224941 L245.41313,24.0369733 C245.41313,21.9114467 244.680387,20.8948904 241.361747,20.8948904 C240.0753,20.9015351 238.792075,21.0224423 237.527631,21.2561459 L237.527631,17.7570082 C238.939283,17.563989 240.362603,17.4657478 241.78776,17.462963 C247.641177,17.462963 249.545455,19.5884896 249.545455,23.1212326 Z M245.706294,29.9342368 L245.706294,27.6851852 L241.376756,27.6851852 C238.744397,27.6851852 237.601399,28.1610243 237.601399,30.1863908 C237.601399,31.6749132 238.467306,32.3703704 240.567132,32.3703704 C243.095582,32.3703704 244.948625,31.4227591 245.693305,29.9342368 L245.706294,29.9342368 Z" fill="#FFFFFF"/>
            <path d="M270.020979,23.4538702 L270.020979,35.7777778 L265.869298,35.7777778 L265.869298,24.6212632 C265.869298,22.0897735 265.301801,20.9266566 262.775804,20.9266566 C260.64236,20.9266566 259.123348,21.5253197 258.393711,23.787411 L258.393711,35.7606731 L254.237762,35.7606731 L254.237762,17.7965038 L258.393711,17.7965038 L258.393711,20.0585951 C259.422031,18.1941872 261.581076,17.462963 264.038803,17.462963 C268.591572,17.462963 270.020979,19.6609118 270.020979,23.4538702 Z" fill="#FFFFFF"/>
            <path d="M273.006993,26.62066 C273.006993,19.4798711 276.248409,17.4636483 281.816885,17.4636483 C283.411683,17.449739 285.000933,17.647599 286.54034,18.0517133 L286.54034,21.5506999 C285.165063,21.0774594 283.713776,20.8456086 282.254563,20.8660242 C278.744473,20.8660242 277.362105,22.1261634 277.362105,26.6542637 C277.362105,31.1025551 278.744473,32.3458925 282.323898,32.3458925 C283.799401,32.3712299 285.26748,32.1378533 286.657343,31.6570164 L286.657343,35.1265997 C285.077755,35.5641264 283.442355,35.7833131 281.799552,35.7777778 C276.248409,35.7777778 273.006993,33.7530479 273.006993,26.62066 Z" fill="#FFFFFF"/>
            <path d="M304.832323,27.3890885 L293.010011,28.1410041 C293.108745,31.081456 294.581168,32.4592678 298.191395,32.4592678 C300.211601,32.4580487 302.210156,32.0520489 304.063916,31.2662844 L304.063916,34.601597 C302.995014,35.1896874 300.389297,35.7777778 297.444451,35.7777778 C291.962573,35.7777778 288.79021,33.7530666 288.79021,26.6203704 C288.79021,19.4876741 291.962573,17.462963 297.444451,17.462963 C303.69903,17.462963 304.999742,20.9284956 304.999742,25.0829341 C305.004308,25.8547113 304.948338,26.6256933 304.832323,27.3890885 Z M301.160839,24.5365682 C301.160839,22.3252964 300.693908,20.4444444 297.489647,20.4444444 C294.122603,20.4444444 293.205876,22.0287657 293.055944,25.1296296 L301.160839,24.5365682 Z" fill="#FFFFFF"/>
        </g>
    </g>
</svg>
