<svg xmlns="http://www.w3.org/2000/svg" viewBox="0 0 443 580" role="img" aria-label="TAS — Trade Assurance System">
  <!-- Dış kalkan (tema koyu ink) -->
  <path fill="#1C0C05" d="M221.5 4
    C 252 32, 330 56, 437 62
    C 444 248, 416 426, 221.5 576
    C 27 426, -1 248, 6 62
    C 113 56, 191 32, 221.5 4 Z"/>
  <!-- İç beyaz alan: üst orta hafif V çentikli -->
  <path fill="#FFFFFF" d="M221.5 140
    C 206 116, 142 106, 48 102
    C 43 250, 68 390, 221.5 520
    C 375 390, 400 250, 395 102
    C 301 106, 237 116, 221.5 140 Z"/>
  <!-- Sarı tik (marka #FFC200) -->
  <path fill="#FFC200" d="M100 340
    L 154 292
    L 212 356
    L 352 188
    L 396 222
    L 212 442
    Z"/>
  <!-- TAS -->
  <text x="221.5" y="278" text-anchor="middle"
        font-family="Arial, Helvetica, sans-serif" font-weight="900"
        font-size="112" letter-spacing="2" fill="#1C0C05">TAS</text>
  <!-- Alt yazı -->
  <text x="221.5" y="312" text-anchor="middle"
        font-family="Arial, Helvetica, sans-serif" font-weight="600"
        font-size="19" letter-spacing="1" fill="#1C0C05">TRADE ASSURANCE SYSTEM</text>
</svg>
