<svg xmlns="http://www.w3.org/2000/svg" aria-hidden="true">
  <symbol id="icon-apple" viewBox="0 0 24 24" fill="none" stroke="currentColor" stroke-width="2" stroke-linecap="round" stroke-linejoin="round">
    <path d="M12 6.528V3a1 1 0 0 1 1-1h0" />
    <path d="M18.237 21A15 15 0 0 0 22 11a6 6 0 0 0-10-4.472A6 6 0 0 0 2 11a15.1 15.1 0 0 0 3.763 10 3 3 0 0 0 3.648.648 5.5 5.5 0 0 1 5.178 0A3 3 0 0 0 18.237 21" />
  </symbol>
  <symbol id="icon-baby" viewBox="0 0 24 24" fill="none" stroke="currentColor" stroke-width="2" stroke-linecap="round" stroke-linejoin="round">
    <path d="M10 16c.5.3 1.2.5 2 .5s1.5-.2 2-.5" />
    <path d="M15 12h.01" />
    <path d="M19.38 6.813A9 9 0 0 1 20.8 10.2a2 2 0 0 1 0 3.6 9 9 0 0 1-17.6 0 2 2 0 0 1 0-3.6A9 9 0 0 1 12 3c2 0 3.5 1.1 3.5 2.5s-.9 2.5-2 2.5c-.8 0-1.5-.4-1.5-1" />
    <path d="M9 12h.01" />
  </symbol>
  <symbol id="icon-backpack" viewBox="0 0 24 24" fill="none" stroke="currentColor" stroke-width="2" stroke-linecap="round" stroke-linejoin="round">
    <path d="M4 10a4 4 0 0 1 4-4h8a4 4 0 0 1 4 4v10a2 2 0 0 1-2 2H6a2 2 0 0 1-2-2z" />
    <path d="M8 10h8" />
    <path d="M8 18h8" />
    <path d="M8 22v-6a2 2 0 0 1 2-2h4a2 2 0 0 1 2 2v6" />
    <path d="M9 6V4a2 2 0 0 1 2-2h2a2 2 0 0 1 2 2v2" />
  </symbol>
  <symbol id="icon-badge-check" viewBox="0 0 24 24" fill="none" stroke="currentColor" stroke-width="2" stroke-linecap="round" stroke-linejoin="round">
    <path d="M3.85 8.62a4 4 0 0 1 4.78-4.77 4 4 0 0 1 6.74 0 4 4 0 0 1 4.78 4.78 4 4 0 0 1 0 6.74 4 4 0 0 1-4.77 4.78 4 4 0 0 1-6.75 0 4 4 0 0 1-4.78-4.77 4 4 0 0 1 0-6.76Z" />
    <path d="m9 12 2 2 4-4" />
  </symbol>
  <symbol id="icon-ban" viewBox="0 0 24 24" fill="none" stroke="currentColor" stroke-width="2" stroke-linecap="round" stroke-linejoin="round">
    <circle cx="12" cy="12" r="10" />
    <path d="M4.929 4.929 19.07 19.071" />
  </symbol>
  <symbol id="icon-bell-off" viewBox="0 0 24 24" fill="none" stroke="currentColor" stroke-width="2" stroke-linecap="round" stroke-linejoin="round">
    <path d="M10.268 21a2 2 0 0 0 3.464 0" />
    <path d="M17 17H4a1 1 0 0 1-.74-1.673C4.59 13.956 6 12.499 6 8a6 6 0 0 1 .258-1.742" />
    <path d="m2 2 20 20" />
    <path d="M8.668 3.01A6 6 0 0 1 18 8c0 2.687.77 4.653 1.707 6.05" />
  </symbol>
  <symbol id="icon-bike" viewBox="0 0 24 24" fill="none" stroke="currentColor" stroke-width="2" stroke-linecap="round" stroke-linejoin="round">
    <circle cx="18.5" cy="17.5" r="3.5" />
    <circle cx="5.5" cy="17.5" r="3.5" />
    <circle cx="15" cy="5" r="1" />
    <path d="M12 17.5V14l-3-3 4-3 2 3h2" />
  </symbol>
  <symbol id="icon-boxes" viewBox="0 0 24 24" fill="none" stroke="currentColor" stroke-width="2" stroke-linecap="round" stroke-linejoin="round">
    <path d="M2.97 12.92A2 2 0 0 0 2 14.63v3.24a2 2 0 0 0 .97 1.71l3 1.8a2 2 0 0 0 2.06 0L12 19v-5.5l-5-3-4.03 2.42Z" />
    <path d="m7 16.5-4.74-2.85" />
    <path d="m7 16.5 5-3" />
    <path d="M7 16.5v5.17" />
    <path d="M12 13.5V19l3.97 2.38a2 2 0 0 0 2.06 0l3-1.8a2 2 0 0 0 .97-1.71v-3.24a2 2 0 0 0-.97-1.71L17 10.5l-5 3Z" />
    <path d="m17 16.5-5-3" />
    <path d="m17 16.5 4.74-2.85" />
    <path d="M17 16.5v5.17" />
    <path d="M7.97 4.42A2 2 0 0 0 7 6.13v4.37l5 3 5-3V6.13a2 2 0 0 0-.97-1.71l-3-1.8a2 2 0 0 0-2.06 0l-3 1.8Z" />
    <path d="M12 8 7.26 5.15" />
    <path d="m12 8 4.74-2.85" />
    <path d="M12 13.5V8" />
  </symbol>
  <symbol id="icon-briefcase" viewBox="0 0 24 24" fill="none" stroke="currentColor" stroke-width="2" stroke-linecap="round" stroke-linejoin="round">
    <path d="M16 20V4a2 2 0 0 0-2-2h-4a2 2 0 0 0-2 2v16" />
    <rect width="20" height="14" x="2" y="6" rx="2" />
  </symbol>
  <symbol id="icon-building" viewBox="0 0 24 24" fill="none" stroke="currentColor" stroke-width="2" stroke-linecap="round" stroke-linejoin="round">
    <path d="M12 10h.01" />
    <path d="M12 14h.01" />
    <path d="M12 6h.01" />
    <path d="M16 10h.01" />
    <path d="M16 14h.01" />
    <path d="M16 6h.01" />
    <path d="M8 10h.01" />
    <path d="M8 14h.01" />
    <path d="M8 6h.01" />
    <path d="M9 22v-3a1 1 0 0 1 1-1h4a1 1 0 0 1 1 1v3" />
    <rect x="4" y="2" width="16" height="20" rx="2" />
  </symbol>
  <symbol id="icon-building-2" viewBox="0 0 24 24" fill="none" stroke="currentColor" stroke-width="2" stroke-linecap="round" stroke-linejoin="round">
    <path d="M10 12h4" />
    <path d="M10 8h4" />
    <path d="M14 21v-3a2 2 0 0 0-4 0v3" />
    <path d="M6 10H4a2 2 0 0 0-2 2v7a2 2 0 0 0 2 2h16a2 2 0 0 0 2-2V9a2 2 0 0 0-2-2h-2" />
    <path d="M6 21V5a2 2 0 0 1 2-2h8a2 2 0 0 1 2 2v16" />
  </symbol>
  <symbol id="icon-calendar" viewBox="0 0 24 24" fill="none" stroke="currentColor" stroke-width="2" stroke-linecap="round" stroke-linejoin="round">
    <path d="M8 2v4" />
    <path d="M16 2v4" />
    <rect width="18" height="18" x="3" y="4" rx="2" />
    <path d="M3 10h18" />
  </symbol>
  <symbol id="icon-camera" viewBox="0 0 24 24" fill="none" stroke="currentColor" stroke-width="2" stroke-linecap="round" stroke-linejoin="round">
    <path d="M13.997 4a2 2 0 0 1 1.76 1.05l.486.9A2 2 0 0 0 18.003 7H20a2 2 0 0 1 2 2v9a2 2 0 0 1-2 2H4a2 2 0 0 1-2-2V9a2 2 0 0 1 2-2h1.997a2 2 0 0 0 1.759-1.048l.489-.904A2 2 0 0 1 10.004 4z" />
    <circle cx="12" cy="13" r="3" />
  </symbol>
  <symbol id="icon-car" viewBox="0 0 24 24" fill="none" stroke="currentColor" stroke-width="2" stroke-linecap="round" stroke-linejoin="round">
    <path d="M19 17h2c.6 0 1-.4 1-1v-3c0-.9-.7-1.7-1.5-1.9C18.7 10.6 16 10 16 10s-1.3-1.4-2.2-2.3c-.5-.4-1.1-.7-1.8-.7H5c-.6 0-1.1.4-1.4.9l-1.4 2.9A3.7 3.7 0 0 0 2 12v4c0 .6.4 1 1 1h2" />
    <circle cx="7" cy="17" r="2" />
    <path d="M9 17h6" />
    <circle cx="17" cy="17" r="2" />
  </symbol>
  <symbol id="icon-chef-hat" viewBox="0 0 24 24" fill="none" stroke="currentColor" stroke-width="2" stroke-linecap="round" stroke-linejoin="round">
    <path d="M17 21a1 1 0 0 0 1-1v-5.35c0-.457.316-.844.727-1.041a4 4 0 0 0-2.134-7.589 5 5 0 0 0-9.186 0 4 4 0 0 0-2.134 7.588c.411.198.727.585.727 1.041V20a1 1 0 0 0 1 1Z" />
    <path d="M6 17h12" />
  </symbol>
  <symbol id="icon-chevron-down" viewBox="0 0 24 24" fill="none" stroke="currentColor" stroke-width="2" stroke-linecap="round" stroke-linejoin="round">
    <path d="m6 9 6 6 6-6" />
  </symbol>
  <symbol id="icon-chevron-left" viewBox="0 0 24 24" fill="none" stroke="currentColor" stroke-width="2" stroke-linecap="round" stroke-linejoin="round">
    <path d="m15 18-6-6 6-6" />
  </symbol>
  <symbol id="icon-chevron-right" viewBox="0 0 24 24" fill="none" stroke="currentColor" stroke-width="2" stroke-linecap="round" stroke-linejoin="round">
    <path d="m9 18 6-6-6-6" />
  </symbol>
  <symbol id="icon-cloud" viewBox="0 0 24 24" fill="none" stroke="currentColor" stroke-width="2" stroke-linecap="round" stroke-linejoin="round">
    <path d="M17.5 19H9a7 7 0 1 1 6.71-9h1.79a4.5 4.5 0 1 1 0 9Z" />
  </symbol>
  <symbol id="icon-coffee" viewBox="0 0 24 24" fill="none" stroke="currentColor" stroke-width="2" stroke-linecap="round" stroke-linejoin="round">
    <path d="M10 2v2" />
    <path d="M14 2v2" />
    <path d="M16 8a1 1 0 0 1 1 1v8a4 4 0 0 1-4 4H7a4 4 0 0 1-4-4V9a1 1 0 0 1 1-1h14a4 4 0 1 1 0 8h-1" />
    <path d="M6 2v2" />
  </symbol>
  <symbol id="icon-cog" viewBox="0 0 24 24" fill="none" stroke="currentColor" stroke-width="2" stroke-linecap="round" stroke-linejoin="round">
    <path d="M11 10.27 7 3.34" />
    <path d="m11 13.73-4 6.93" />
    <path d="M12 22v-2" />
    <path d="M12 2v2" />
    <path d="M14 12h8" />
    <path d="m17 20.66-1-1.73" />
    <path d="m17 3.34-1 1.73" />
    <path d="M2 12h2" />
    <path d="m20.66 17-1.73-1" />
    <path d="m20.66 7-1.73 1" />
    <path d="m3.34 17 1.73-1" />
    <path d="m3.34 7 1.73 1" />
    <circle cx="12" cy="12" r="2" />
    <circle cx="12" cy="12" r="8" />
  </symbol>
  <symbol id="icon-construction" viewBox="0 0 24 24" fill="none" stroke="currentColor" stroke-width="2" stroke-linecap="round" stroke-linejoin="round">
    <rect x="2" y="6" width="20" height="8" rx="1" />
    <path d="M17 14v7" />
    <path d="M7 14v7" />
    <path d="M17 3v3" />
    <path d="M7 3v3" />
    <path d="M10 14 2.3 6.3" />
    <path d="m14 6 7.7 7.7" />
    <path d="m8 6 8 8" />
  </symbol>
  <symbol id="icon-contact" viewBox="0 0 24 24" fill="none" stroke="currentColor" stroke-width="2" stroke-linecap="round" stroke-linejoin="round">
    <path d="M16 2v2" />
    <path d="M7 22v-2a2 2 0 0 1 2-2h6a2 2 0 0 1 2 2v2" />
    <path d="M8 2v2" />
    <circle cx="12" cy="11" r="3" />
    <rect x="3" y="4" width="18" height="18" rx="2" />
  </symbol>
  <symbol id="icon-cpu" viewBox="0 0 24 24" fill="none" stroke="currentColor" stroke-width="2" stroke-linecap="round" stroke-linejoin="round">
    <path d="M12 20v2" />
    <path d="M12 2v2" />
    <path d="M17 20v2" />
    <path d="M17 2v2" />
    <path d="M2 12h2" />
    <path d="M2 17h2" />
    <path d="M2 7h2" />
    <path d="M20 12h2" />
    <path d="M20 17h2" />
    <path d="M20 7h2" />
    <path d="M7 20v2" />
    <path d="M7 2v2" />
    <rect x="4" y="4" width="16" height="16" rx="2" />
    <rect x="8" y="8" width="8" height="8" rx="1" />
  </symbol>
  <symbol id="icon-credit-card" viewBox="0 0 24 24" fill="none" stroke="currentColor" stroke-width="2" stroke-linecap="round" stroke-linejoin="round">
    <rect width="20" height="14" x="2" y="5" rx="2" />
    <line x1="2" x2="22" y1="10" y2="10" />
  </symbol>
  <symbol id="icon-diamond" viewBox="0 0 24 24" fill="none" stroke="currentColor" stroke-width="2" stroke-linecap="round" stroke-linejoin="round">
    <path d="M2.7 10.3a2.41 2.41 0 0 0 0 3.41l7.59 7.59a2.41 2.41 0 0 0 3.41 0l7.59-7.59a2.41 2.41 0 0 0 0-3.41l-7.59-7.59a2.41 2.41 0 0 0-3.41 0Z" />
  </symbol>
  <symbol id="icon-drill" viewBox="0 0 24 24" fill="none" stroke="currentColor" stroke-width="2" stroke-linecap="round" stroke-linejoin="round">
    <path d="M10 18a1 1 0 0 1 1 1v2a1 1 0 0 1-1 1H5a3 3 0 0 1-3-3 1 1 0 0 1 1-1z" />
    <path d="M13 10H4a2 2 0 0 1-2-2V4a2 2 0 0 1 2-2h9a1 1 0 0 1 1 1v6a1 1 0 0 1-1 1l-.81 3.242a1 1 0 0 1-.97.758H8" />
    <path d="M14 4h3a1 1 0 0 1 1 1v2a1 1 0 0 1-1 1h-3" />
    <path d="M18 6h4" />
    <path d="m5 10-2 8" />
    <path d="m7 18 2-8" />
  </symbol>
  <symbol id="icon-dumbbell" viewBox="0 0 24 24" fill="none" stroke="currentColor" stroke-width="2" stroke-linecap="round" stroke-linejoin="round">
    <path d="M17.596 12.768a2 2 0 1 0 2.829-2.829l-1.768-1.767a2 2 0 0 0 2.828-2.829l-2.828-2.828a2 2 0 0 0-2.829 2.828l-1.767-1.768a2 2 0 1 0-2.829 2.829z" />
    <path d="m2.5 21.5 1.4-1.4" />
    <path d="m20.1 3.9 1.4-1.4" />
    <path d="M5.343 21.485a2 2 0 1 0 2.829-2.828l1.767 1.768a2 2 0 1 0 2.829-2.829l-6.364-6.364a2 2 0 1 0-2.829 2.829l1.768 1.767a2 2 0 0 0-2.828 2.829z" />
    <path d="m9.6 14.4 4.8-4.8" />
  </symbol>
  <symbol id="icon-eye" viewBox="0 0 24 24" fill="none" stroke="currentColor" stroke-width="2" stroke-linecap="round" stroke-linejoin="round">
    <path d="M2.062 12.348a1 1 0 0 1 0-.696 10.75 10.75 0 0 1 19.876 0 1 1 0 0 1 0 .696 10.75 10.75 0 0 1-19.876 0" />
    <circle cx="12" cy="12" r="3" />
  </symbol>
  <symbol id="icon-factory" viewBox="0 0 24 24" fill="none" stroke="currentColor" stroke-width="2" stroke-linecap="round" stroke-linejoin="round">
    <path d="M12 16h.01" />
    <path d="M16 16h.01" />
    <path d="M3 19a2 2 0 0 0 2 2h14a2 2 0 0 0 2-2V8.5a.5.5 0 0 0-.769-.422l-4.462 2.844A.5.5 0 0 1 15 10.5v-2a.5.5 0 0 0-.769-.422L9.77 10.922A.5.5 0 0 1 9 10.5V5a2 2 0 0 0-2-2H5a2 2 0 0 0-2 2z" />
    <path d="M8 16h.01" />
  </symbol>
  <symbol id="icon-file-text" viewBox="0 0 24 24" fill="none" stroke="currentColor" stroke-width="2" stroke-linecap="round" stroke-linejoin="round">
    <path d="M6 22a2 2 0 0 1-2-2V4a2 2 0 0 1 2-2h8a2.4 2.4 0 0 1 1.704.706l3.588 3.588A2.4 2.4 0 0 1 20 8v12a2 2 0 0 1-2 2z" />
    <path d="M14 2v5a1 1 0 0 0 1 1h5" />
    <path d="M10 9H8" />
    <path d="M16 13H8" />
    <path d="M16 17H8" />
  </symbol>
  <symbol id="icon-flask-conical" viewBox="0 0 24 24" fill="none" stroke="currentColor" stroke-width="2" stroke-linecap="round" stroke-linejoin="round">
    <path d="M14 2v6a2 2 0 0 0 .245.96l5.51 10.08A2 2 0 0 1 18 22H6a2 2 0 0 1-1.755-2.96l5.51-10.08A2 2 0 0 0 10 8V2" />
    <path d="M6.453 15h11.094" />
    <path d="M8.5 2h7" />
  </symbol>
  <symbol id="icon-folder" viewBox="0 0 24 24" fill="none" stroke="currentColor" stroke-width="2" stroke-linecap="round" stroke-linejoin="round">
    <path d="M20 20a2 2 0 0 0 2-2V8a2 2 0 0 0-2-2h-7.9a2 2 0 0 1-1.69-.9L9.6 3.9A2 2 0 0 0 7.93 3H4a2 2 0 0 0-2 2v13a2 2 0 0 0 2 2Z" />
  </symbol>
  <symbol id="icon-footprints" viewBox="0 0 24 24" fill="none" stroke="currentColor" stroke-width="2" stroke-linecap="round" stroke-linejoin="round">
    <path d="M4 16v-2.38C4 11.5 2.97 10.5 3 8c.03-2.72 1.49-6 4.5-6C9.37 2 10 3.8 10 5.5c0 3.11-2 5.66-2 8.68V16a2 2 0 1 1-4 0Z" />
    <path d="M20 20v-2.38c0-2.12 1.03-3.12 1-5.62-.03-2.72-1.49-6-4.5-6C14.63 6 14 7.8 14 9.5c0 3.11 2 5.66 2 8.68V20a2 2 0 1 0 4 0Z" />
    <path d="M16 17h4" />
    <path d="M4 13h4" />
  </symbol>
  <symbol id="icon-gamepad-2" viewBox="0 0 24 24" fill="none" stroke="currentColor" stroke-width="2" stroke-linecap="round" stroke-linejoin="round">
    <line x1="6" x2="10" y1="11" y2="11" />
    <line x1="8" x2="8" y1="9" y2="13" />
    <line x1="15" x2="15.01" y1="12" y2="12" />
    <line x1="18" x2="18.01" y1="10" y2="10" />
    <path d="M17.32 5H6.68a4 4 0 0 0-3.978 3.59c-.006.052-.01.101-.017.152C2.604 9.416 2 14.456 2 16a3 3 0 0 0 3 3c1 0 1.5-.5 2-1l1.414-1.414A2 2 0 0 1 9.828 16h4.344a2 2 0 0 1 1.414.586L17 18c.5.5 1 1 2 1a3 3 0 0 0 3-3c0-1.545-.604-6.584-.685-7.258-.007-.05-.011-.1-.017-.151A4 4 0 0 0 17.32 5z" />
  </symbol>
  <symbol id="icon-gem" viewBox="0 0 24 24" fill="none" stroke="currentColor" stroke-width="2" stroke-linecap="round" stroke-linejoin="round">
    <path d="M10.5 3 8 9l4 13 4-13-2.5-6" />
    <path d="M17 3a2 2 0 0 1 1.6.8l3 4a2 2 0 0 1 .013 2.382l-7.99 10.986a2 2 0 0 1-3.247 0l-7.99-10.986A2 2 0 0 1 2.4 7.8l2.998-3.997A2 2 0 0 1 7 3z" />
    <path d="M2 9h20" />
  </symbol>
  <symbol id="icon-glasses" viewBox="0 0 24 24" fill="none" stroke="currentColor" stroke-width="2" stroke-linecap="round" stroke-linejoin="round">
    <circle cx="6" cy="15" r="4" />
    <circle cx="18" cy="15" r="4" />
    <path d="M14 15a2 2 0 0 0-2-2 2 2 0 0 0-2 2" />
    <path d="M2.5 13 5 7c.7-1.3 1.4-2 3-2" />
    <path d="M21.5 13 19 7c-.7-1.3-1.5-2-3-2" />
  </symbol>
  <symbol id="icon-hammer" viewBox="0 0 24 24" fill="none" stroke="currentColor" stroke-width="2" stroke-linecap="round" stroke-linejoin="round">
    <path d="m15 12-9.373 9.373a1 1 0 0 1-3.001-3L12 9" />
    <path d="m18 15 4-4" />
    <path d="m21.5 11.5-1.914-1.914A2 2 0 0 1 19 8.172v-.344a2 2 0 0 0-.586-1.414l-1.657-1.657A6 6 0 0 0 12.516 3H9l1.243 1.243A6 6 0 0 1 12 8.485V10l2 2h1.172a2 2 0 0 1 1.414.586L18.5 14.5" />
  </symbol>
  <symbol id="icon-hard-hat" viewBox="0 0 24 24" fill="none" stroke="currentColor" stroke-width="2" stroke-linecap="round" stroke-linejoin="round">
    <path d="M10 10V5a1 1 0 0 1 1-1h2a1 1 0 0 1 1 1v5" />
    <path d="M14 6a6 6 0 0 1 6 6v3" />
    <path d="M4 15v-3a6 6 0 0 1 6-6" />
    <rect x="2" y="15" width="20" height="4" rx="1" />
  </symbol>
  <symbol id="icon-heart-pulse" viewBox="0 0 24 24" fill="none" stroke="currentColor" stroke-width="2" stroke-linecap="round" stroke-linejoin="round">
    <path d="M2 9.5a5.5 5.5 0 0 1 9.591-3.676.56.56 0 0 0 .818 0A5.49 5.49 0 0 1 22 9.5c0 2.29-1.5 4-3 5.5l-5.492 5.313a2 2 0 0 1-3 .019L5 15c-1.5-1.5-3-3.2-3-5.5" />
    <path d="M3.22 13H9.5l.5-1 2 4.5 2-7 1.5 3.5h5.27" />
  </symbol>
  <symbol id="icon-help-circle" viewBox="0 0 24 24" fill="none" stroke="currentColor" stroke-width="2" stroke-linecap="round" stroke-linejoin="round">
    <circle cx="12" cy="12" r="10" />
    <path d="M9.09 9a3 3 0 0 1 5.83 1c0 2-3 3-3 3" />
    <path d="M12 17h.01" />
  </symbol>
  <symbol id="icon-home" viewBox="0 0 24 24" fill="none" stroke="currentColor" stroke-width="2" stroke-linecap="round" stroke-linejoin="round">
    <path d="M15 21v-8a1 1 0 0 0-1-1h-4a1 1 0 0 0-1 1v8" />
    <path d="M3 10a2 2 0 0 1 .709-1.528l7-6a2 2 0 0 1 2.582 0l7 6A2 2 0 0 1 21 10v9a2 2 0 0 1-2 2H5a2 2 0 0 1-2-2z" />
  </symbol>
  <symbol id="icon-image" viewBox="0 0 24 24" fill="none" stroke="currentColor" stroke-width="2" stroke-linecap="round" stroke-linejoin="round">
    <rect width="18" height="18" x="3" y="3" rx="2" ry="2" />
    <circle cx="9" cy="9" r="2" />
    <path d="m21 15-3.086-3.086a2 2 0 0 0-2.828 0L6 21" />
  </symbol>
  <symbol id="icon-info" viewBox="0 0 24 24" fill="none" stroke="currentColor" stroke-width="2" stroke-linecap="round" stroke-linejoin="round">
    <circle cx="12" cy="12" r="10" />
    <path d="M12 16v-4" />
    <path d="M12 8h.01" />
  </symbol>
  <symbol id="icon-languages" viewBox="0 0 24 24" fill="none" stroke="currentColor" stroke-width="2" stroke-linecap="round" stroke-linejoin="round">
    <path d="m5 8 6 6" />
    <path d="m4 14 6-6 2-3" />
    <path d="M2 5h12" />
    <path d="M7 2h1" />
    <path d="m22 22-5-10-5 10" />
    <path d="M14 18h6" />
  </symbol>
  <symbol id="icon-laptop" viewBox="0 0 24 24" fill="none" stroke="currentColor" stroke-width="2" stroke-linecap="round" stroke-linejoin="round">
    <path d="M18 5a2 2 0 0 1 2 2v8.526a2 2 0 0 0 .212.897l1.068 2.127a1 1 0 0 1-.9 1.45H3.62a1 1 0 0 1-.9-1.45l1.068-2.127A2 2 0 0 0 4 15.526V7a2 2 0 0 1 2-2z" />
    <path d="M20.054 15.987H3.946" />
  </symbol>
  <symbol id="icon-layers" viewBox="0 0 24 24" fill="none" stroke="currentColor" stroke-width="2" stroke-linecap="round" stroke-linejoin="round">
    <path d="M12.83 2.18a2 2 0 0 0-1.66 0L2.6 6.08a1 1 0 0 0 0 1.83l8.58 3.91a2 2 0 0 0 1.66 0l8.58-3.9a1 1 0 0 0 0-1.83z" />
    <path d="M2 12a1 1 0 0 0 .58.91l8.6 3.91a2 2 0 0 0 1.65 0l8.58-3.9A1 1 0 0 0 22 12" />
    <path d="M2 17a1 1 0 0 0 .58.91l8.6 3.91a2 2 0 0 0 1.65 0l8.58-3.9A1 1 0 0 0 22 17" />
  </symbol>
  <symbol id="icon-layout-grid" viewBox="0 0 24 24" fill="none" stroke="currentColor" stroke-width="2" stroke-linecap="round" stroke-linejoin="round">
    <rect width="7" height="7" x="3" y="3" rx="1" />
    <rect width="7" height="7" x="14" y="3" rx="1" />
    <rect width="7" height="7" x="14" y="14" rx="1" />
    <rect width="7" height="7" x="3" y="14" rx="1" />
  </symbol>
  <symbol id="icon-leaf" viewBox="0 0 24 24" fill="none" stroke="currentColor" stroke-width="2" stroke-linecap="round" stroke-linejoin="round">
    <path d="M11 20A7 7 0 0 1 9.8 6.1C15.5 5 17 4.48 19 2c1 2 2 4.18 2 8 0 5.5-4.78 10-10 10Z" />
    <path d="M2 21c0-3 1.85-5.36 5.08-6C9.5 14.52 12 13 13 12" />
  </symbol>
  <symbol id="icon-mail" viewBox="0 0 24 24" fill="none" stroke="currentColor" stroke-width="2" stroke-linecap="round" stroke-linejoin="round">
    <path d="m22 7-8.991 5.727a2 2 0 0 1-2.009 0L2 7" />
    <rect x="2" y="4" width="20" height="16" rx="2" />
  </symbol>
  <symbol id="icon-map-pin" viewBox="0 0 24 24" fill="none" stroke="currentColor" stroke-width="2" stroke-linecap="round" stroke-linejoin="round">
    <path d="M20 10c0 4.993-5.539 10.193-7.399 11.799a1 1 0 0 1-1.202 0C9.539 20.193 4 14.993 4 10a8 8 0 0 1 16 0" />
    <circle cx="12" cy="10" r="3" />
  </symbol>
  <symbol id="icon-maximize-2" viewBox="0 0 24 24" fill="none" stroke="currentColor" stroke-width="2" stroke-linecap="round" stroke-linejoin="round">
    <path d="M15 3h6v6" />
    <path d="m21 3-7 7" />
    <path d="m3 21 7-7" />
    <path d="M9 21H3v-6" />
  </symbol>
  <symbol id="icon-message-circle" viewBox="0 0 24 24" fill="none" stroke="currentColor" stroke-width="2" stroke-linecap="round" stroke-linejoin="round">
    <path d="M2.992 16.342a2 2 0 0 1 .094 1.167l-1.065 3.29a1 1 0 0 0 1.236 1.168l3.413-.998a2 2 0 0 1 1.099.092 10 10 0 1 0-4.777-4.719" />
  </symbol>
  <symbol id="icon-microscope" viewBox="0 0 24 24" fill="none" stroke="currentColor" stroke-width="2" stroke-linecap="round" stroke-linejoin="round">
    <path d="M6 18h8" />
    <path d="M3 22h18" />
    <path d="M14 22a7 7 0 1 0 0-14h-1" />
    <path d="M9 14h2" />
    <path d="M9 12a2 2 0 0 1-2-2V6h6v4a2 2 0 0 1-2 2Z" />
    <path d="M12 6V3a1 1 0 0 0-1-1H9a1 1 0 0 0-1 1v3" />
  </symbol>
  <symbol id="icon-minimize-2" viewBox="0 0 24 24" fill="none" stroke="currentColor" stroke-width="2" stroke-linecap="round" stroke-linejoin="round">
    <path d="m14 10 7-7" />
    <path d="M20 10h-6V4" />
    <path d="m3 21 7-7" />
    <path d="M4 14h6v6" />
  </symbol>
  <symbol id="icon-monitor" viewBox="0 0 24 24" fill="none" stroke="currentColor" stroke-width="2" stroke-linecap="round" stroke-linejoin="round">
    <rect width="20" height="14" x="2" y="3" rx="2" />
    <line x1="8" x2="16" y1="21" y2="21" />
    <line x1="12" x2="12" y1="17" y2="21" />
  </symbol>
  <symbol id="icon-more-horizontal" viewBox="0 0 24 24" fill="none" stroke="currentColor" stroke-width="2" stroke-linecap="round" stroke-linejoin="round">
    <circle cx="12" cy="12" r="1" />
    <circle cx="19" cy="12" r="1" />
    <circle cx="5" cy="12" r="1" />
  </symbol>
  <symbol id="icon-package" viewBox="0 0 24 24" fill="none" stroke="currentColor" stroke-width="2" stroke-linecap="round" stroke-linejoin="round">
    <path d="M11 21.73a2 2 0 0 0 2 0l7-4A2 2 0 0 0 21 16V8a2 2 0 0 0-1-1.73l-7-4a2 2 0 0 0-2 0l-7 4A2 2 0 0 0 3 8v8a2 2 0 0 0 1 1.73z" />
    <path d="M12 22V12" />
    <polyline points="3.29 7 12 12 20.71 7" />
    <path d="m7.5 4.27 9 5.15" />
  </symbol>
  <symbol id="icon-package-check" viewBox="0 0 24 24" fill="none" stroke="currentColor" stroke-width="2" stroke-linecap="round" stroke-linejoin="round">
    <path d="M12 22V12" />
    <path d="m16 17 2 2 4-4" />
    <path d="M21 11.127V8a2 2 0 0 0-1-1.73l-7-4a2 2 0 0 0-2 0l-7 4A2 2 0 0 0 3 8v8a2 2 0 0 0 1 1.729l7 4a2 2 0 0 0 2 .001l1.32-.753" />
    <path d="M3.29 7 12 12l8.71-5" />
    <path d="m7.5 4.27 8.997 5.148" />
  </symbol>
  <symbol id="icon-paintbrush" viewBox="0 0 24 24" fill="none" stroke="currentColor" stroke-width="2" stroke-linecap="round" stroke-linejoin="round">
    <path d="m14.622 17.897-10.68-2.913" />
    <path d="M18.376 2.622a1 1 0 1 1 3.002 3.002L17.36 9.643a.5.5 0 0 0 0 .707l.944.944a2.41 2.41 0 0 1 0 3.408l-.944.944a.5.5 0 0 1-.707 0L8.354 7.348a.5.5 0 0 1 0-.707l.944-.944a2.41 2.41 0 0 1 3.408 0l.944.944a.5.5 0 0 0 .707 0z" />
    <path d="M9 8c-1.804 2.71-3.97 3.46-6.583 3.948a.507.507 0 0 0-.302.819l7.32 8.883a1 1 0 0 0 1.185.204C12.735 20.405 16 16.792 16 15" />
  </symbol>
  <symbol id="icon-paperclip" viewBox="0 0 24 24" fill="none" stroke="currentColor" stroke-width="2" stroke-linecap="round" stroke-linejoin="round">
    <path d="m16 6-8.414 8.586a2 2 0 0 0 2.829 2.829l8.414-8.586a4 4 0 1 0-5.657-5.657l-8.379 8.551a6 6 0 1 0 8.485 8.485l8.379-8.551" />
  </symbol>
  <symbol id="icon-paw-print" viewBox="0 0 24 24" fill="none" stroke="currentColor" stroke-width="2" stroke-linecap="round" stroke-linejoin="round">
    <circle cx="11" cy="4" r="2" />
    <circle cx="18" cy="8" r="2" />
    <circle cx="20" cy="16" r="2" />
    <path d="M9 10a5 5 0 0 1 5 5v3.5a3.5 3.5 0 0 1-6.84 1.045Q6.52 17.48 4.46 16.84A3.5 3.5 0 0 1 5.5 10Z" />
  </symbol>
  <symbol id="icon-phone" viewBox="0 0 24 24" fill="none" stroke="currentColor" stroke-width="2" stroke-linecap="round" stroke-linejoin="round">
    <path d="M13.832 16.568a1 1 0 0 0 1.213-.303l.355-.465A2 2 0 0 1 17 15h3a2 2 0 0 1 2 2v3a2 2 0 0 1-2 2A18 18 0 0 1 2 4a2 2 0 0 1 2-2h3a2 2 0 0 1 2 2v3a2 2 0 0 1-.8 1.6l-.468.351a1 1 0 0 0-.292 1.233 14 14 0 0 0 6.392 6.384" />
  </symbol>
  <symbol id="icon-pill" viewBox="0 0 24 24" fill="none" stroke="currentColor" stroke-width="2" stroke-linecap="round" stroke-linejoin="round">
    <path d="m10.5 20.5 10-10a4.95 4.95 0 1 0-7-7l-10 10a4.95 4.95 0 1 0 7 7Z" />
    <path d="m8.5 8.5 7 7" />
  </symbol>
  <symbol id="icon-pin" viewBox="0 0 24 24" fill="none" stroke="currentColor" stroke-width="2" stroke-linecap="round" stroke-linejoin="round">
    <path d="M12 17v5" />
    <path d="M9 10.76a2 2 0 0 1-1.11 1.79l-1.78.9A2 2 0 0 0 5 15.24V16a1 1 0 0 0 1 1h12a1 1 0 0 0 1-1v-.76a2 2 0 0 0-1.11-1.79l-1.78-.9A2 2 0 0 1 15 10.76V7a1 1 0 0 1 1-1 2 2 0 0 0 0-4H8a2 2 0 0 0 0 4 1 1 0 0 1 1 1z" />
  </symbol>
  <symbol id="icon-printer" viewBox="0 0 24 24" fill="none" stroke="currentColor" stroke-width="2" stroke-linecap="round" stroke-linejoin="round">
    <path d="M6 18H4a2 2 0 0 1-2-2v-5a2 2 0 0 1 2-2h16a2 2 0 0 1 2 2v5a2 2 0 0 1-2 2h-2" />
    <path d="M6 9V3a1 1 0 0 1 1-1h10a1 1 0 0 1 1 1v6" />
    <rect x="6" y="14" width="12" height="8" rx="1" />
  </symbol>
  <symbol id="icon-receipt" viewBox="0 0 24 24" fill="none" stroke="currentColor" stroke-width="2" stroke-linecap="round" stroke-linejoin="round">
    <path d="M12 17V7" />
    <path d="M16 8h-6a2 2 0 0 0 0 4h4a2 2 0 0 1 0 4H8" />
    <path d="M4 3a1 1 0 0 1 1-1 1.3 1.3 0 0 1 .7.2l.933.6a1.3 1.3 0 0 0 1.4 0l.934-.6a1.3 1.3 0 0 1 1.4 0l.933.6a1.3 1.3 0 0 0 1.4 0l.933-.6a1.3 1.3 0 0 1 1.4 0l.934.6a1.3 1.3 0 0 0 1.4 0l.933-.6A1.3 1.3 0 0 1 19 2a1 1 0 0 1 1 1v18a1 1 0 0 1-1 1 1.3 1.3 0 0 1-.7-.2l-.933-.6a1.3 1.3 0 0 0-1.4 0l-.934.6a1.3 1.3 0 0 1-1.4 0l-.933-.6a1.3 1.3 0 0 0-1.4 0l-.933.6a1.3 1.3 0 0 1-1.4 0l-.934-.6a1.3 1.3 0 0 0-1.4 0l-.933.6a1.3 1.3 0 0 1-.7.2 1 1 0 0 1-1-1z" />
  </symbol>
  <symbol id="icon-rotate-ccw" viewBox="0 0 24 24" fill="none" stroke="currentColor" stroke-width="2" stroke-linecap="round" stroke-linejoin="round">
    <path d="M3 12a9 9 0 1 0 9-9 9.75 9.75 0 0 0-6.74 2.74L3 8" />
    <path d="M3 3v5h5" />
  </symbol>
  <symbol id="icon-scissors" viewBox="0 0 24 24" fill="none" stroke="currentColor" stroke-width="2" stroke-linecap="round" stroke-linejoin="round">
    <circle cx="6" cy="6" r="3" />
    <path d="M8.12 8.12 12 12" />
    <path d="M20 4 8.12 15.88" />
    <circle cx="6" cy="18" r="3" />
    <path d="M14.8 14.8 20 20" />
  </symbol>
  <symbol id="icon-search" viewBox="0 0 24 24" fill="none" stroke="currentColor" stroke-width="2" stroke-linecap="round" stroke-linejoin="round">
    <path d="m21 21-4.34-4.34" />
    <circle cx="11" cy="11" r="8" />
  </symbol>
  <symbol id="icon-send" viewBox="0 0 24 24" fill="none" stroke="currentColor" stroke-width="2" stroke-linecap="round" stroke-linejoin="round">
    <path d="M14.536 21.686a.5.5 0 0 0 .937-.024l6.5-19a.496.496 0 0 0-.635-.635l-19 6.5a.5.5 0 0 0-.024.937l7.93 3.18a2 2 0 0 1 1.112 1.11z" />
    <path d="m21.854 2.147-10.94 10.939" />
  </symbol>
  <symbol id="icon-settings" viewBox="0 0 24 24" fill="none" stroke="currentColor" stroke-width="2" stroke-linecap="round" stroke-linejoin="round">
    <path d="M9.671 4.136a2.34 2.34 0 0 1 4.659 0 2.34 2.34 0 0 0 3.319 1.915 2.34 2.34 0 0 1 2.33 4.033 2.34 2.34 0 0 0 0 3.831 2.34 2.34 0 0 1-2.33 4.033 2.34 2.34 0 0 0-3.319 1.915 2.34 2.34 0 0 1-4.659 0 2.34 2.34 0 0 0-3.32-1.915 2.34 2.34 0 0 1-2.33-4.033 2.34 2.34 0 0 0 0-3.831A2.34 2.34 0 0 1 6.35 6.051a2.34 2.34 0 0 0 3.319-1.915" />
    <circle cx="12" cy="12" r="3" />
  </symbol>
  <symbol id="icon-shield" viewBox="0 0 24 24" fill="none" stroke="currentColor" stroke-width="2" stroke-linecap="round" stroke-linejoin="round">
    <path d="M20 13c0 5-3.5 7.5-7.66 8.95a1 1 0 0 1-.67-.01C7.5 20.5 4 18 4 13V6a1 1 0 0 1 1-1c2 0 4.5-1.2 6.24-2.72a1.17 1.17 0 0 1 1.52 0C14.51 3.81 17 5 19 5a1 1 0 0 1 1 1z" />
  </symbol>
  <symbol id="icon-shield-check" viewBox="0 0 24 24" fill="none" stroke="currentColor" stroke-width="2" stroke-linecap="round" stroke-linejoin="round">
    <path d="M20 13c0 5-3.5 7.5-7.66 8.95a1 1 0 0 1-.67-.01C7.5 20.5 4 18 4 13V6a1 1 0 0 1 1-1c2 0 4.5-1.2 6.24-2.72a1.17 1.17 0 0 1 1.52 0C14.51 3.81 17 5 19 5a1 1 0 0 1 1 1z" />
    <path d="m9 12 2 2 4-4" />
  </symbol>
  <symbol id="icon-shirt" viewBox="0 0 24 24" fill="none" stroke="currentColor" stroke-width="2" stroke-linecap="round" stroke-linejoin="round">
    <path d="M20.38 3.46 16 2a4 4 0 0 1-8 0L3.62 3.46a2 2 0 0 0-1.34 2.23l.58 3.47a1 1 0 0 0 .99.84H6v10c0 1.1.9 2 2 2h8a2 2 0 0 0 2-2V10h2.15a1 1 0 0 0 .99-.84l.58-3.47a2 2 0 0 0-1.34-2.23z" />
  </symbol>
  <symbol id="icon-shopping-bag" viewBox="0 0 24 24" fill="none" stroke="currentColor" stroke-width="2" stroke-linecap="round" stroke-linejoin="round">
    <path d="M16 10a4 4 0 0 1-8 0" />
    <path d="M3.103 6.034h17.794" />
    <path d="M3.4 5.467a2 2 0 0 0-.4 1.2V20a2 2 0 0 0 2 2h14a2 2 0 0 0 2-2V6.667a2 2 0 0 0-.4-1.2l-2-2.667A2 2 0 0 0 17 2H7a2 2 0 0 0-1.6.8z" />
  </symbol>
  <symbol id="icon-shopping-cart" viewBox="0 0 24 24" fill="none" stroke="currentColor" stroke-width="2" stroke-linecap="round" stroke-linejoin="round">
    <circle cx="8" cy="21" r="1" />
    <circle cx="19" cy="21" r="1" />
    <path d="M2.05 2.05h2l2.66 12.42a2 2 0 0 0 2 1.58h9.78a2 2 0 0 0 1.95-1.57l1.65-7.43H5.12" />
  </symbol>
  <symbol id="icon-smartphone" viewBox="0 0 24 24" fill="none" stroke="currentColor" stroke-width="2" stroke-linecap="round" stroke-linejoin="round">
    <rect width="14" height="20" x="5" y="2" rx="2" ry="2" />
    <path d="M12 18h.01" />
  </symbol>
  <symbol id="icon-smile" viewBox="0 0 24 24" fill="none" stroke="currentColor" stroke-width="2" stroke-linecap="round" stroke-linejoin="round">
    <circle cx="12" cy="12" r="10" />
    <path d="M8 14s1.5 2 4 2 4-2 4-2" />
    <line x1="9" x2="9.01" y1="9" y2="9" />
    <line x1="15" x2="15.01" y1="9" y2="9" />
  </symbol>
  <symbol id="icon-sofa" viewBox="0 0 24 24" fill="none" stroke="currentColor" stroke-width="2" stroke-linecap="round" stroke-linejoin="round">
    <path d="M20 9V6a2 2 0 0 0-2-2H6a2 2 0 0 0-2 2v3" />
    <path d="M2 16a2 2 0 0 0 2 2h16a2 2 0 0 0 2-2v-5a2 2 0 0 0-4 0v1.5a.5.5 0 0 1-.5.5h-11a.5.5 0 0 1-.5-.5V11a2 2 0 0 0-4 0z" />
    <path d="M4 18v2" />
    <path d="M20 18v2" />
    <path d="M12 4v9" />
  </symbol>
  <symbol id="icon-sparkles" viewBox="0 0 24 24" fill="none" stroke="currentColor" stroke-width="2" stroke-linecap="round" stroke-linejoin="round">
    <path d="M11.017 2.814a1 1 0 0 1 1.966 0l1.051 5.558a2 2 0 0 0 1.594 1.594l5.558 1.051a1 1 0 0 1 0 1.966l-5.558 1.051a2 2 0 0 0-1.594 1.594l-1.051 5.558a1 1 0 0 1-1.966 0l-1.051-5.558a2 2 0 0 0-1.594-1.594l-5.558-1.051a1 1 0 0 1 0-1.966l5.558-1.051a2 2 0 0 0 1.594-1.594z" />
    <path d="M20 2v4" />
    <path d="M22 4h-4" />
    <circle cx="4" cy="20" r="2" />
  </symbol>
  <symbol id="icon-spray-can" viewBox="0 0 24 24" fill="none" stroke="currentColor" stroke-width="2" stroke-linecap="round" stroke-linejoin="round">
    <path d="M3 3h.01" />
    <path d="M7 5h.01" />
    <path d="M11 7h.01" />
    <path d="M3 7h.01" />
    <path d="M7 9h.01" />
    <path d="M3 11h.01" />
    <rect width="4" height="4" x="15" y="5" />
    <path d="m19 9 2 2v10c0 .6-.4 1-1 1h-6c-.6 0-1-.4-1-1V11l2-2" />
    <path d="m13 14 8-2" />
    <path d="m13 19 8-2" />
  </symbol>
  <symbol id="icon-sprout" viewBox="0 0 24 24" fill="none" stroke="currentColor" stroke-width="2" stroke-linecap="round" stroke-linejoin="round">
    <path d="M14 9.536V7a4 4 0 0 1 4-4h1.5a.5.5 0 0 1 .5.5V5a4 4 0 0 1-4 4 4 4 0 0 0-4 4c0 2 1 3 1 5a5 5 0 0 1-1 3" />
    <path d="M4 9a5 5 0 0 1 8 4 5 5 0 0 1-8-4" />
    <path d="M5 21h14" />
  </symbol>
  <symbol id="icon-star" viewBox="0 0 24 24" fill="none" stroke="currentColor" stroke-width="2" stroke-linecap="round" stroke-linejoin="round">
    <path d="M11.525 2.295a.53.53 0 0 1 .95 0l2.31 4.679a2.123 2.123 0 0 0 1.595 1.16l5.166.756a.53.53 0 0 1 .294.904l-3.736 3.638a2.123 2.123 0 0 0-.611 1.878l.882 5.14a.53.53 0 0 1-.771.56l-4.618-2.428a2.122 2.122 0 0 0-1.973 0L6.396 21.01a.53.53 0 0 1-.77-.56l.881-5.139a2.122 2.122 0 0 0-.611-1.879L2.16 9.795a.53.53 0 0 1 .294-.906l5.165-.755a2.122 2.122 0 0 0 1.597-1.16z" />
  </symbol>
  <symbol id="icon-stethoscope" viewBox="0 0 24 24" fill="none" stroke="currentColor" stroke-width="2" stroke-linecap="round" stroke-linejoin="round">
    <path d="M11 2v2" />
    <path d="M5 2v2" />
    <path d="M5 3H4a2 2 0 0 0-2 2v4a6 6 0 0 0 12 0V5a2 2 0 0 0-2-2h-1" />
    <path d="M8 15a6 6 0 0 0 12 0v-3" />
    <circle cx="20" cy="10" r="2" />
  </symbol>
  <symbol id="icon-store" viewBox="0 0 24 24" fill="none" stroke="currentColor" stroke-width="2" stroke-linecap="round" stroke-linejoin="round">
    <path d="M15 21v-5a1 1 0 0 0-1-1h-4a1 1 0 0 0-1 1v5" />
    <path d="M17.774 10.31a1.12 1.12 0 0 0-1.549 0 2.5 2.5 0 0 1-3.451 0 1.12 1.12 0 0 0-1.548 0 2.5 2.5 0 0 1-3.452 0 1.12 1.12 0 0 0-1.549 0 2.5 2.5 0 0 1-3.77-3.248l2.889-4.184A2 2 0 0 1 7 2h10a2 2 0 0 1 1.653.873l2.895 4.192a2.5 2.5 0 0 1-3.774 3.244" />
    <path d="M4 10.95V19a2 2 0 0 0 2 2h12a2 2 0 0 0 2-2v-8.05" />
  </symbol>
  <symbol id="icon-tag" viewBox="0 0 24 24" fill="none" stroke="currentColor" stroke-width="2" stroke-linecap="round" stroke-linejoin="round">
    <path d="M12.586 2.586A2 2 0 0 0 11.172 2H4a2 2 0 0 0-2 2v7.172a2 2 0 0 0 .586 1.414l8.704 8.704a2.426 2.426 0 0 0 3.42 0l6.58-6.58a2.426 2.426 0 0 0 0-3.42z" />
    <circle cx="7.5" cy="7.5" r=".5" fill="currentColor" />
  </symbol>
  <symbol id="icon-trash-2" viewBox="0 0 24 24" fill="none" stroke="currentColor" stroke-width="2" stroke-linecap="round" stroke-linejoin="round">
    <path d="M10 11v6" />
    <path d="M14 11v6" />
    <path d="M19 6v14a2 2 0 0 1-2 2H7a2 2 0 0 1-2-2V6" />
    <path d="M3 6h18" />
    <path d="M8 6V4a2 2 0 0 1 2-2h4a2 2 0 0 1 2 2v2" />
  </symbol>
  <symbol id="icon-trending-down" viewBox="0 0 24 24" fill="none" stroke="currentColor" stroke-width="2" stroke-linecap="round" stroke-linejoin="round">
    <path d="M16 17h6v-6" />
    <path d="m22 17-8.5-8.5-5 5L2 7" />
  </symbol>
  <symbol id="icon-trending-up" viewBox="0 0 24 24" fill="none" stroke="currentColor" stroke-width="2" stroke-linecap="round" stroke-linejoin="round">
    <path d="M16 7h6v6" />
    <path d="m22 7-8.5 8.5-5-5L2 17" />
  </symbol>
  <symbol id="icon-trophy" viewBox="0 0 24 24" fill="none" stroke="currentColor" stroke-width="2" stroke-linecap="round" stroke-linejoin="round">
    <path d="M10 14.66v1.626a2 2 0 0 1-.976 1.696A5 5 0 0 0 7 21.978" />
    <path d="M14 14.66v1.626a2 2 0 0 0 .976 1.696A5 5 0 0 1 17 21.978" />
    <path d="M18 9h1.5a1 1 0 0 0 0-5H18" />
    <path d="M4 22h16" />
    <path d="M6 9a6 6 0 0 0 12 0V3a1 1 0 0 0-1-1H7a1 1 0 0 0-1 1z" />
    <path d="M6 9H4.5a1 1 0 0 1 0-5H6" />
  </symbol>
  <symbol id="icon-truck" viewBox="0 0 24 24" fill="none" stroke="currentColor" stroke-width="2" stroke-linecap="round" stroke-linejoin="round">
    <path d="M14 18V6a2 2 0 0 0-2-2H4a2 2 0 0 0-2 2v11a1 1 0 0 0 1 1h2" />
    <path d="M15 18H9" />
    <path d="M19 18h2a1 1 0 0 0 1-1v-3.65a1 1 0 0 0-.22-.624l-3.48-4.35A1 1 0 0 0 17.52 8H14" />
    <circle cx="17" cy="18" r="2" />
    <circle cx="7" cy="18" r="2" />
  </symbol>
  <symbol id="icon-tv" viewBox="0 0 24 24" fill="none" stroke="currentColor" stroke-width="2" stroke-linecap="round" stroke-linejoin="round">
    <path d="m17 2-5 5-5-5" />
    <rect width="20" height="15" x="2" y="7" rx="2" />
  </symbol>
  <symbol id="icon-user" viewBox="0 0 24 24" fill="none" stroke="currentColor" stroke-width="2" stroke-linecap="round" stroke-linejoin="round">
    <path d="M19 21v-2a4 4 0 0 0-4-4H9a4 4 0 0 0-4 4v2" />
    <circle cx="12" cy="7" r="4" />
  </symbol>
  <symbol id="icon-utensils-crossed" viewBox="0 0 24 24" fill="none" stroke="currentColor" stroke-width="2" stroke-linecap="round" stroke-linejoin="round">
    <path d="m16 2-2.3 2.3a3 3 0 0 0 0 4.2l1.8 1.8a3 3 0 0 0 4.2 0L22 8" />
    <path d="M15 15 3.3 3.3a4.2 4.2 0 0 0 0 6l7.3 7.3c.7.7 2 .7 2.8 0L15 15Zm0 0 7 7" />
    <path d="m2.1 21.8 6.4-6.3" />
    <path d="m19 5-7 7" />
  </symbol>
  <symbol id="icon-video" viewBox="0 0 24 24" fill="none" stroke="currentColor" stroke-width="2" stroke-linecap="round" stroke-linejoin="round">
    <path d="m16 13 5.223 3.482a.5.5 0 0 0 .777-.416V7.87a.5.5 0 0 0-.752-.432L16 10.5" />
    <rect x="2" y="6" width="14" height="12" rx="2" />
  </symbol>
  <symbol id="icon-wallet" viewBox="0 0 24 24" fill="none" stroke="currentColor" stroke-width="2" stroke-linecap="round" stroke-linejoin="round">
    <path d="M19 7V4a1 1 0 0 0-1-1H5a2 2 0 0 0 0 4h15a1 1 0 0 1 1 1v4h-3a2 2 0 0 0 0 4h3a1 1 0 0 0 1-1v-2a1 1 0 0 0-1-1" />
    <path d="M3 5v14a2 2 0 0 0 2 2h15a1 1 0 0 0 1-1v-4" />
  </symbol>
  <symbol id="icon-watch" viewBox="0 0 24 24" fill="none" stroke="currentColor" stroke-width="2" stroke-linecap="round" stroke-linejoin="round">
    <path d="M12 10v2.2l1.6 1" />
    <path d="m16.13 7.66-.81-4.05a2 2 0 0 0-2-1.61h-2.68a2 2 0 0 0-2 1.61l-.78 4.05" />
    <path d="m7.88 16.36.8 4a2 2 0 0 0 2 1.61h2.72a2 2 0 0 0 2-1.61l.81-4.05" />
    <circle cx="12" cy="12" r="6" />
  </symbol>
  <symbol id="icon-wheat" viewBox="0 0 24 24" fill="none" stroke="currentColor" stroke-width="2" stroke-linecap="round" stroke-linejoin="round">
    <path d="M2 22 16 8" />
    <path d="M3.47 12.53 5 11l1.53 1.53a3.5 3.5 0 0 1 0 4.94L5 19l-1.53-1.53a3.5 3.5 0 0 1 0-4.94Z" />
    <path d="M7.47 8.53 9 7l1.53 1.53a3.5 3.5 0 0 1 0 4.94L9 15l-1.53-1.53a3.5 3.5 0 0 1 0-4.94Z" />
    <path d="M11.47 4.53 13 3l1.53 1.53a3.5 3.5 0 0 1 0 4.94L13 11l-1.53-1.53a3.5 3.5 0 0 1 0-4.94Z" />
    <path d="M20 2h2v2a4 4 0 0 1-4 4h-2V6a4 4 0 0 1 4-4Z" />
    <path d="M11.47 17.47 13 19l-1.53 1.53a3.5 3.5 0 0 1-4.94 0L5 19l1.53-1.53a3.5 3.5 0 0 1 4.94 0Z" />
    <path d="M15.47 13.47 17 15l-1.53 1.53a3.5 3.5 0 0 1-4.94 0L9 15l1.53-1.53a3.5 3.5 0 0 1 4.94 0Z" />
    <path d="M19.47 9.47 21 11l-1.53 1.53a3.5 3.5 0 0 1-4.94 0L13 11l1.53-1.53a3.5 3.5 0 0 1 4.94 0Z" />
  </symbol>
  <symbol id="icon-wrench" viewBox="0 0 24 24" fill="none" stroke="currentColor" stroke-width="2" stroke-linecap="round" stroke-linejoin="round">
    <path d="M14.7 6.3a1 1 0 0 0 0 1.4l1.6 1.6a1 1 0 0 0 1.4 0l3.106-3.105c.32-.322.863-.22.983.218a6 6 0 0 1-8.259 7.057l-7.91 7.91a1 1 0 0 1-2.999-3l7.91-7.91a6 6 0 0 1 7.057-8.259c.438.12.54.662.219.984z" />
  </symbol>
  <symbol id="icon-x" viewBox="0 0 24 24" fill="none" stroke="currentColor" stroke-width="2" stroke-linecap="round" stroke-linejoin="round">
    <path d="M18 6 6 18" />
    <path d="m6 6 12 12" />
  </symbol>
  <symbol id="icon-zap" viewBox="0 0 24 24" fill="none" stroke="currentColor" stroke-width="2" stroke-linecap="round" stroke-linejoin="round">
    <path d="M4 14a1 1 0 0 1-.78-1.63l9.9-10.2a.5.5 0 0 1 .86.46l-1.92 6.02A1 1 0 0 0 13 10h7a1 1 0 0 1 .78 1.63l-9.9 10.2a.5.5 0 0 1-.86-.46l1.92-6.02A1 1 0 0 0 11 14z" />
  </symbol>
</svg>
